<svg xmlns="http://www.w3.org/2000/svg" viewBox="0 0 100 100">
  <defs>
    <!-- Muted industrial palette (no neon) -->
    <linearGradient id="steel" x1="0%" y1="0%" x2="100%" y2="100%">
      <stop offset="0%" stop-color="#1f2937" />
      <stop offset="100%" stop-color="#0b1320" />
    </linearGradient>
    <linearGradient id="metalEdge" x1="0%" y1="0%" x2="0%" y2="100%">
      <stop offset="0%" stop-color="#94a3b8" />
      <stop offset="100%" stop-color="#6b7280" />
    </linearGradient>
    <linearGradient id="cable" x1="0%" y1="0%" x2="100%" y2="0%">
      <stop offset="0%" stop-color="#334155" />
      <stop offset="100%" stop-color="#1f2937" />
    </linearGradient>
  </defs>

  <!-- Body: angular armored shell -->
  <g id="body" transform="translate(0,2)">
    <path d="M50 20 L68 28 L76 46 L68 64 L50 72 L32 64 L24 46 L32 28 Z" fill="url(#steel)" stroke="url(#metalEdge)" stroke-width="2"/>
    <!-- Center plating -->
    <path d="M50 26 L62 32 L66 46 L62 60 L50 66 L38 60 L34 46 L38 32 Z" fill="#111827" stroke="#374151" stroke-width="1.5"/>
  </g>

  <!-- Eyes: visor with protective plates (muted amber, not neon) -->
  <g id="eyes">
    <rect x="38" y="38" width="24" height="8" rx="2" fill="#d97706" stroke="#92400e" stroke-width="1"/>
    <circle cx="44" cy="42" r="2" fill="#111827"/>
    <circle cx="56" cy="42" r="2" fill="#111827"/>
  </g>

  <!-- Mechanical tentacles: segmented with clamps -->
  <g id="tentacles" stroke="url(#metalEdge)" stroke-width="3" fill="none" stroke-linecap="round">
    <!-- Left cables -->
    <path d="M34 62 C24 70, 18 78, 14 90" stroke="url(#cable)"/>
    <path d="M38 64 C28 72, 22 80, 18 92" stroke="url(#cable)"/>
    <!-- Right cables -->
    <path d="M66 62 C76 70, 82 78, 86 90" stroke="url(#cable)"/>
    <path d="M62 64 C72 72, 78 80, 82 92" stroke="url(#cable)"/>
  </g>

  <!-- Segment joints -->
  <g id="joints" fill="#4b5563">
    <circle cx="34" cy="62" r="2"/>
    <circle cx="38" cy="64" r="2"/>
    <circle cx="62" cy="64" r="2"/>
    <circle cx="66" cy="62" r="2"/>
  </g>

  <!-- Top fins/panels for aggressive silhouette -->
  <g id="fins" fill="#0f172a" stroke="#475569" stroke-width="1">
    <path d="M50 14 L54 22 L46 22 Z"/>
    <path d="M40 18 L44 26 L36 26 Z"/>
    <path d="M60 18 L64 26 L56 26 Z"/>
  </g>
</svg>