<svg xmlns="http://www.w3.org/2000/svg" viewBox="0 0 100 100" role="img" aria-label="Da-Kraken mechanical logo">
  <defs>
    <!-- Subtle, non-neon metallic gradients -->
    <linearGradient id="metal" x1="0%" y1="0%" x2="100%" y2="100%">
      <stop offset="0%" stop-color="#111827"/>
      <stop offset="100%" stop-color="#334155"/>
    </linearGradient>
    <linearGradient id="steel" x1="0%" y1="0%" x2="100%" y2="0%">
      <stop offset="0%" stop-color="#64748b"/>
      <stop offset="100%" stop-color="#475569"/>
    </linearGradient>
  </defs>

  <!-- Mechanical Kraken head -->
  <g transform="translate(0,2)">
    <!-- Head plating -->
    <path d="M30 28 L50 18 L70 28 L76 42 L70 58 L50 66 L30 58 L24 42 Z" fill="url(#metal)" stroke="#0b1220" stroke-width="1.5"/>
    <!-- Central ridge -->
    <path d="M50 20 L50 64" stroke="#1f2937" stroke-width="2" opacity="0.7"/>
    <!-- Plating seams -->
    <path d="M36 30 L28 44 L36 56" stroke="#1f2937" stroke-width="1" opacity="0.6"/>
    <path d="M64 30 L72 44 L64 56" stroke="#1f2937" stroke-width="1" opacity="0.6"/>

    <!-- Eyes: aggressive slits -->
    <path d="M38 42 L46 40 L46 42 L38 44 Z" fill="#7f1d1d" stroke="#4c0b0b" stroke-width="0.5"/>
    <path d="M62 42 L54 40 L54 42 L62 44 Z" fill="#7f1d1d" stroke="#4c0b0b" stroke-width="0.5"/>

    <!-- Jaw / intake grill -->
    <path d="M45 52 L55 52 L57 58 L43 58 Z" fill="#1f2937"/>
    <path d="M45.5 54 H54.5" stroke="#334155" stroke-width="1"/>
    <path d="M46 56 H54" stroke="#334155" stroke-width="1"/>
  </g>

  <!-- Mechanical tentacles -->
  <g fill="none" stroke="url(#steel)" stroke-width="3.5" stroke-linecap="round" stroke-linejoin="round">
    <path d="M28 62 C22 70, 18 78, 20 86 C21 90, 26 92, 30 90"/>
    <path d="M38 64 C32 72, 30 80, 34 86 C36 88, 40 88, 44 86"/>
    <path d="M62 64 C68 72, 70 80, 66 86 C64 88, 60 88, 56 86"/>
    <path d="M72 62 C78 70, 82 78, 80 86 C79 90, 74 92, 70 90"/>
  </g>

  <!-- Segment accents on tentacles -->
  <g stroke="#1f2937" stroke-width="1" opacity="0.35">
    <path d="M26 68 L30 66"/>
    <path d="M34 70 L38 68"/>
    <path d="M66 70 L62 68"/>
    <path d="M74 68 L70 66"/>
  </g>

  <!-- Subtle highlight -->
  <ellipse cx="50" cy="28" rx="20" ry="8" fill="#ffffff" opacity="0.05"/>
</svg>